<svg width="24" height="25" viewBox="0 0 24 25" fill="none" xmlns="http://www.w3.org/2000/svg">
<path d="M6 8.29395H10" stroke="white" stroke-width="1.5" stroke-linecap="round" stroke-linejoin="round"/>
<path d="M20.833 9.29395H18.231C16.446 9.29395 15 10.6369 15 12.2939C15 13.9509 16.447 15.2939 18.23 15.2939H20.833C20.917 15.2939 20.958 15.2939 20.993 15.2919C21.533 15.2589 21.963 14.8599 21.998 14.3589C22 14.3269 22 14.2879 22 14.2109V10.3769C22 10.2999 22 10.2609 21.998 10.2289C21.962 9.72795 21.533 9.32895 20.993 9.29595C20.959 9.29395 20.917 9.29395 20.833 9.29395Z" stroke="white" stroke-width="1.5"/>
<path d="M20.965 9.29395C20.887 7.42195 20.637 6.27395 19.828 5.46595C18.657 4.29395 16.771 4.29395 13 4.29395H10C6.229 4.29395 4.343 4.29395 3.172 5.46595C2 6.63695 2 8.52295 2 12.2939C2 16.0649 2 17.9509 3.172 19.1219C4.343 20.2939 6.229 20.2939 10 20.2939H13C16.771 20.2939 18.657 20.2939 19.828 19.1219C20.637 18.3139 20.888 17.1659 20.965 15.2939" stroke="white" stroke-width="1.5"/>
<path d="M17.9912 12.2939H18.0012" stroke="white" stroke-width="2" stroke-linecap="round" stroke-linejoin="round"/>
</svg>
