<svg width="400" height="38" viewBox="0 0 400 38" fill="none" xmlns="http://www.w3.org/2000/svg">
<path d="M1 19.2939H399" stroke="#9AD2EB" stroke-width="2" stroke-linecap="round"/>
<circle cx="200" cy="18.7939" r="17.5" transform="rotate(90 200 18.7939)" fill="#36A4D7" stroke="#9AD2EB" stroke-width="2"/>
<path d="M200.123 12.6167C200.123 12.9379 200.384 13.1986 200.705 13.1986C201.866 13.1986 202.847 14.2199 202.847 15.4291V23.7699L201.777 22.8266C201.536 22.6143 201.169 22.6368 200.956 22.8779C200.858 22.9879 200.81 23.1258 200.81 23.262C200.81 23.423 200.876 23.5838 201.007 23.6984L203.044 25.4954C203.263 25.6892 203.593 25.6892 203.813 25.4954L205.85 23.6984C206.091 23.486 206.114 23.1177 205.901 22.8767C205.688 22.636 205.321 22.6127 205.08 22.8255L204.01 23.77V15.4285C204.01 13.5885 202.496 12.0342 200.705 12.0342C200.384 12.0348 200.123 12.2955 200.123 12.6167Z" fill="#FED41D"/>
<path d="M199.861 25.0587C199.861 24.7375 199.705 24.4768 199.384 24.4768C198.223 24.4768 197.347 23.4561 197.347 22.2468V13.9055L198.312 14.8488C198.553 15.0618 198.869 15.0385 199.082 14.7976C199.179 14.687 199.201 14.5497 199.201 14.4129C199.201 14.2517 199.121 14.0911 198.991 13.9759L196.948 12.1795C196.728 11.9857 196.394 11.9857 196.174 12.1795L194.136 13.9759C193.894 14.1889 193.871 14.5567 194.083 14.7976C194.297 15.0385 194.768 15.0618 195.009 14.8488L196.184 13.9055V22.2468C196.184 24.0869 197.594 25.6412 199.385 25.6412C199.705 25.6406 199.861 25.3811 199.861 25.0587Z" fill="#FED41D"/>
</svg>
